<svg width="20" height="21" viewBox="0 0 20 21" fill="none" xmlns="http://www.w3.org/2000/svg">
<path d="M16.2181 1.58077V1.68077H16.3181H17.1826C18.3106 1.68077 19.2438 2.69069 19.2438 3.95192V8.61062L18.003 10.1154V7.42962V7.32962H17.903H2.34229H2.24229V7.42962V17.8627C2.24229 18.3448 2.60174 18.7531 3.0627 18.7531H10.066L11.3882 20.1338H3.0627C1.93469 20.1338 1.00149 19.1239 1.00149 17.8627V3.95192C1.00149 2.69069 1.93469 1.68077 3.0627 1.68077H3.92718H4.02718V1.58077V0.1H5.26799V1.58077V1.68077H5.36799H14.8773H14.9773V1.58077V0.1H16.2181V1.58077ZM2.24229 5.84885V5.94885H2.34229H17.903H18.003V5.84885V3.95192C18.003 3.46983 17.6435 3.06154 17.1826 3.06154H16.3181H16.2181V3.16154V4.64231H14.9773V3.16154V3.06154H14.8773H5.36799H5.26799V3.16154V4.64231H4.02718V3.16154V3.06154H3.92718H3.0627C2.60174 3.06154 2.24229 3.46983 2.24229 3.95192V5.84885ZM10.1545 16.3738L11.0162 15.3806L13.5469 18.0236L13.625 18.1051L13.6965 18.0177L18.2755 12.4243L19.2043 13.3396L13.6942 20.0705L10.1545 16.3738ZM13.6247 10.5702H12.3839V9.18942H13.6247V10.5702ZM16.5063 9.18942V10.5702H15.2655V9.18942H16.5063ZM4.97983 13.7317H3.73902V12.351H4.97983V13.7317ZM7.86144 13.7317H6.62063V12.351H7.86144V13.7317ZM9.50224 12.351H10.743V13.7317H9.50224V12.351ZM12.3839 12.351H13.6247V13.7317H12.3839V12.351ZM3.73902 15.5125H4.97983V16.8933H3.73902V15.5125ZM6.62063 15.5125H7.86144V16.8933H6.62063V15.5125ZM4.97983 10.5702H3.73902V9.18942H4.97983V10.5702ZM7.86144 10.5702H6.62063V9.18942H7.86144V10.5702ZM10.743 10.5702H9.50224V9.18942H10.743V10.5702Z" fill="white" stroke="#1F1B1B" stroke-width="0.2"/>
</svg>
