<svg width="12" height="12" viewBox="0 0 12 12" fill="none" xmlns="http://www.w3.org/2000/svg">
<g clip-path="url(#clip0_1_98)">
<path d="M6 11.25C3.105 11.25 0.75 8.895 0.75 6C0.75 3.105 3.105 0.75 6 0.75C8.895 0.75 11.25 3.105 11.25 6C11.25 8.895 8.895 11.25 6 11.25ZM6 1.5C3.5175 1.5 1.5 3.5175 1.5 6C1.5 8.4825 3.5175 10.5 6 10.5C8.4825 10.5 10.5 8.4825 10.5 6C10.5 3.5175 8.4825 1.5 6 1.5Z" fill="white"/>
<path d="M7.5 7.875C7.4325 7.875 7.365 7.86 7.305 7.8225L5.43 6.6975C5.37447 6.66413 5.32863 6.6168 5.29705 6.56022C5.26547 6.50364 5.24925 6.43979 5.25 6.375V3.375C5.25 3.165 5.415 3 5.625 3C5.835 3 6 3.165 6 3.375V6.165L7.695 7.1775C7.76482 7.22029 7.81878 7.28468 7.84871 7.3609C7.87864 7.43711 7.8829 7.52101 7.86085 7.59987C7.83881 7.67874 7.79165 7.74826 7.72653 7.79791C7.66141 7.84756 7.58189 7.87462 7.5 7.875Z" fill="white"/>
</g>
<defs>
<clipPath id="clip0_1_98">
<rect width="12" height="12" fill="white"/>
</clipPath>
</defs>
</svg>
