<svg width="14" height="14" viewBox="0 0 14 14" fill="none" xmlns="http://www.w3.org/2000/svg">
<g clip-path="url(#clip0_1_719)">
<path d="M7 13.125C3.6225 13.125 0.875 10.3775 0.875 7C0.875 3.6225 3.6225 0.875 7 0.875C10.3775 0.875 13.125 3.6225 13.125 7C13.125 10.3775 10.3775 13.125 7 13.125ZM7 1.75C4.10375 1.75 1.75 4.10375 1.75 7C1.75 9.89625 4.10375 12.25 7 12.25C9.89625 12.25 12.25 9.89625 12.25 7C12.25 4.10375 9.89625 1.75 7 1.75Z" fill="#145E94"/>
<path d="M8.75003 9.1875C8.67128 9.1875 8.59253 9.17 8.52253 9.12625L6.33503 7.81375C6.27024 7.77481 6.21676 7.7196 6.17992 7.65359C6.14308 7.58759 6.12416 7.51309 6.12503 7.4375V3.9375C6.12503 3.6925 6.31753 3.5 6.56253 3.5C6.80753 3.5 7.00003 3.6925 7.00003 3.9375V7.1925L8.97753 8.37375C9.05898 8.42367 9.12194 8.49879 9.15685 8.58771C9.19177 8.67663 9.19674 8.77452 9.17102 8.86652C9.1453 8.95853 9.09028 9.03964 9.01431 9.09756C8.93834 9.15548 8.84556 9.18706 8.75003 9.1875Z" fill="#145E94"/>
</g>
<defs>
<clipPath id="clip0_1_719">
<rect width="14" height="14" fill="white"/>
</clipPath>
</defs>
</svg>
