<svg width="31" height="31" viewBox="0 0 31 31" fill="none" xmlns="http://www.w3.org/2000/svg">
<path d="M7.9696 6.70832H8.1465L8.20536 6.54151C8.45501 5.83397 8.91798 5.22129 9.53045 4.78792C10.1429 4.35455 10.8747 4.12183 11.625 4.12183C12.3753 4.12183 13.1071 4.35455 13.7196 4.78792C14.3321 5.22129 14.795 5.83397 15.0447 6.54151L15.1035 6.70832H15.2804H24.5417C24.818 6.70832 25.0829 6.81807 25.2783 7.01342C25.4736 7.20877 25.5834 7.47372 25.5834 7.74999C25.5834 8.02626 25.4736 8.29121 25.2783 8.48656C25.0829 8.68191 24.818 8.79166 24.5417 8.79166H15.2804H15.1035L15.0447 8.95847C14.795 9.66601 14.3321 10.2787 13.7196 10.7121C13.1071 11.1454 12.3753 11.3782 11.625 11.3782C10.8747 11.3782 10.1429 11.1454 9.53045 10.7121C8.91798 10.2787 8.45501 9.66601 8.20536 8.95847L8.1465 8.79166H7.9696H6.45835C6.18209 8.79166 5.91713 8.68191 5.72178 8.48656C5.52643 8.29121 5.41669 8.02626 5.41669 7.74999C5.41669 7.47372 5.52643 7.20877 5.72178 7.01342C5.91713 6.81807 6.18209 6.70832 6.45835 6.70832H7.9696ZM15.7196 14.4583H15.8965L15.9554 14.2915C16.205 13.584 16.668 12.9713 17.2804 12.5379C17.8929 12.1046 18.6247 11.8718 19.375 11.8718C20.1253 11.8718 20.8571 12.1046 21.4696 12.5379C22.0821 12.9713 22.545 13.584 22.7947 14.2915L22.8535 14.4583H23.0304H24.5417C24.818 14.4583 25.0829 14.5681 25.2783 14.7634C25.4736 14.9588 25.5834 15.2237 25.5834 15.5C25.5834 15.7763 25.4736 16.0412 25.2783 16.2366C25.0829 16.4319 24.818 16.5417 24.5417 16.5417H23.0304H22.8535L22.7947 16.7085C22.545 17.416 22.0821 18.0287 21.4696 18.4621C20.8571 18.8954 20.1253 19.1282 19.375 19.1282C18.6247 19.1282 17.8929 18.8954 17.2804 18.4621C16.668 18.0287 16.205 17.416 15.9554 16.7085L15.8965 16.5417H15.7196H6.45835C6.18209 16.5417 5.91714 16.4319 5.72178 16.2366C5.52643 16.0412 5.41669 15.7763 5.41669 15.5C5.41669 15.2237 5.52643 14.9588 5.72178 14.7634C5.91713 14.5681 6.18209 14.4583 6.45835 14.4583H15.7196ZM7.9696 22.2083H8.1465L8.20536 22.0415C8.45501 21.334 8.91798 20.7213 9.53045 20.2879C10.1429 19.8546 10.8747 19.6218 11.625 19.6218C12.3753 19.6218 13.1071 19.8546 13.7196 20.2879C14.3321 20.7213 14.795 21.334 15.0447 22.0415L15.1035 22.2083H15.2804H24.5417C24.818 22.2083 25.0829 22.3181 25.2783 22.5134C25.4736 22.7088 25.5834 22.9737 25.5834 23.25C25.5834 23.5263 25.4736 23.7912 25.2783 23.9866C25.0829 24.1819 24.818 24.2917 24.5417 24.2917H15.2804H15.1035L15.0447 24.4585C14.795 25.166 14.3321 25.7787 13.7196 26.2121C13.1071 26.6454 12.3753 26.8782 11.625 26.8782C10.8747 26.8782 10.1429 26.6454 9.53045 26.2121C8.91798 25.7787 8.45501 25.166 8.20536 24.4585L8.1465 24.2917H7.9696H6.45835C6.18209 24.2917 5.91713 24.1819 5.72178 23.9866C5.52643 23.7912 5.41669 23.5263 5.41669 23.25C5.41669 22.9737 5.52643 22.7088 5.72178 22.5134C5.91713 22.3181 6.18209 22.2083 6.45835 22.2083H7.9696ZM11.625 6.20832C11.2161 6.20832 10.824 6.37075 10.5349 6.65987C10.2458 6.94899 10.0834 7.34112 10.0834 7.74999C10.0834 8.15887 10.2458 8.551 10.5349 8.84011C10.824 9.12923 11.2161 9.29166 11.625 9.29166C12.0339 9.29166 12.426 9.12923 12.7151 8.84011C13.0043 8.551 13.1667 8.15887 13.1667 7.74999C13.1667 7.34112 13.0043 6.94899 12.7151 6.65987C12.426 6.37075 12.0339 6.20832 11.625 6.20832ZM19.375 13.9583C18.9661 13.9583 18.574 14.1207 18.2849 14.4099C17.9958 14.699 17.8334 15.0911 17.8334 15.5C17.8334 15.9089 17.9958 16.301 18.2849 16.5901C18.574 16.8792 18.9661 17.0417 19.375 17.0417C19.7839 17.0417 20.176 16.8792 20.4651 16.5901C20.7543 16.301 20.9167 15.9089 20.9167 15.5C20.9167 15.0911 20.7543 14.699 20.4651 14.4099C20.176 14.1207 19.7839 13.9583 19.375 13.9583ZM11.625 21.7083C11.2161 21.7083 10.824 21.8708 10.5349 22.1599C10.2458 22.449 10.0834 22.8411 10.0834 23.25C10.0834 23.6589 10.2458 24.051 10.5349 24.3401C10.824 24.6292 11.2161 24.7917 11.625 24.7917C12.0339 24.7917 12.426 24.6292 12.7151 24.3401C13.0043 24.051 13.1667 23.6589 13.1667 23.25C13.1667 22.8411 13.0043 22.449 12.7151 22.1599C12.426 21.8708 12.0339 21.7083 11.625 21.7083Z" fill="#145E94" stroke="#F5F6F8" stroke-width="0.5"/>
</svg>
