<svg width="16" height="16" viewBox="0 0 16 16" fill="none" xmlns="http://www.w3.org/2000/svg">
<path d="M14.6667 7.44445H8.55555V1.33333C8.55555 1.18599 8.49702 1.04468 8.39283 0.940497C8.28864 0.83631 8.14733 0.777779 7.99999 0.777779C7.85265 0.777779 7.71134 0.83631 7.60715 0.940497C7.50297 1.04468 7.44444 1.18599 7.44444 1.33333V7.44445H1.33332C1.18598 7.44445 1.04467 7.50298 0.940487 7.60716C0.836301 7.71135 0.777769 7.85266 0.777769 8C0.775027 8.0722 0.787795 8.14416 0.815211 8.21101C0.842626 8.27786 0.884053 8.33806 0.9367 8.38754C0.989347 8.43703 1.05199 8.47466 1.12041 8.49789C1.18883 8.52112 1.26143 8.52942 1.33332 8.52222H7.44444V14.6667C7.44444 14.814 7.50297 14.9553 7.60715 15.0595C7.71134 15.1637 7.85265 15.2222 7.99999 15.2222C8.14733 15.2222 8.28864 15.1637 8.39283 15.0595C8.49702 14.9553 8.55555 14.814 8.55555 14.6667V8.55556H14.6667C14.814 8.55556 14.9553 8.49703 15.0595 8.39284C15.1637 8.28865 15.2222 8.14734 15.2222 8C15.2222 7.85266 15.1637 7.71135 15.0595 7.60716C14.9553 7.50298 14.814 7.44445 14.6667 7.44445Z" fill="#145E94"/>
</svg>
