<svg width="15" height="15" viewBox="0 0 15 15" fill="none" xmlns="http://www.w3.org/2000/svg">
<path d="M7.16813 1.07437C7.21167 1.03072 7.26339 0.996087 7.32034 0.972456C7.37729 0.948825 7.43834 0.936661 7.5 0.936661C7.56166 0.936661 7.62271 0.948825 7.67966 0.972456C7.7366 0.996087 7.78833 1.03072 7.83187 1.07437C8.07656 1.32 9.15188 2.43375 10.1691 3.88969C11.1722 5.325 12.1875 7.18594 12.1875 8.90625C12.1875 10.575 11.6466 11.8734 10.7663 12.7547C9.88969 13.6331 8.71031 14.0625 7.5 14.0625C6.28969 14.0625 5.11031 13.6331 4.23375 12.7547C3.35344 11.8734 2.8125 10.5759 2.8125 8.90625C2.8125 7.18594 3.82781 5.325 4.83094 3.89062C5.53331 2.89079 6.31488 1.949 7.16813 1.07437ZM5.59875 4.42687C4.60969 5.8425 3.75 7.49719 3.75 8.90625C3.75 10.3659 4.21875 11.4122 4.8975 12.0919C5.57812 12.7762 6.51 13.125 7.5 13.125C8.49 13.125 9.42094 12.7753 10.1025 12.0919C10.7822 11.4122 11.25 10.3669 11.25 8.90625C11.25 7.49719 10.3912 5.84344 9.40125 4.42687C8.82105 3.60366 8.18585 2.82063 7.5 2.08312C6.81414 2.82062 6.17894 3.60366 5.59875 4.42687Z" fill="#145E94"/>
</svg>
