<svg width="25" height="27" viewBox="0 0 25 27" fill="none" xmlns="http://www.w3.org/2000/svg">
<path d="M20.2109 17.2052C18.6751 17.2052 17.3105 17.9516 16.4601 19.1004L9.13907 15.3591C9.2619 14.9418 9.32812 14.5005 9.32812 14.044C9.32812 13.4257 9.20691 12.8353 8.98744 12.2948L16.6603 7.68477C17.5165 8.68961 18.7905 9.32812 20.2109 9.32812C22.7827 9.32812 24.875 7.23583 24.875 4.66406C24.875 2.0923 22.7827 0 20.2109 0C17.6392 0 15.5469 2.0923 15.5469 4.66406C15.5469 5.25847 15.6589 5.82712 15.8625 6.35038L8.1704 10.9719C7.31491 9.99674 6.06022 9.37995 4.66406 9.37995C2.0923 9.37995 0 11.4722 0 14.044C0 16.6158 2.0923 18.7081 4.66406 18.7081C6.22507 18.7081 7.60926 17.9372 8.45631 16.7561L15.7561 20.4866C15.6202 20.9237 15.5469 21.388 15.5469 21.8693C15.5469 24.441 17.6392 26.5333 20.2109 26.5333C22.7827 26.5333 24.875 24.441 24.875 21.8693C24.875 19.2975 22.7827 17.2052 20.2109 17.2052ZM20.2109 1.55469C21.9254 1.55469 23.3203 2.94955 23.3203 4.66406C23.3203 6.37857 21.9254 7.77344 20.2109 7.77344C18.4964 7.77344 17.1016 6.37857 17.1016 4.66406C17.1016 2.94955 18.4964 1.55469 20.2109 1.55469ZM4.66406 17.1534C2.94955 17.1534 1.55469 15.7585 1.55469 14.044C1.55469 12.3295 2.94955 10.9346 4.66406 10.9346C6.37857 10.9346 7.77344 12.3295 7.77344 14.044C7.77344 15.7585 6.37857 17.1534 4.66406 17.1534ZM20.2109 24.9786C18.4964 24.9786 17.1016 23.5838 17.1016 21.8693C17.1016 20.1548 18.4964 18.7599 20.2109 18.7599C21.9254 18.7599 23.3203 20.1548 23.3203 21.8693C23.3203 23.5838 21.9254 24.9786 20.2109 24.9786Z" fill="#210C0C"/>
</svg>
