<svg width="19" height="19" viewBox="0 0 19 19" fill="none" xmlns="http://www.w3.org/2000/svg">
<path d="M10.45 6.65025C12.7917 6.65025 14.1198 8.14555 14.3127 9.95055H14.3716C15.8783 9.95055 17.1 11.1257 17.1 12.5754C17.1 14.0251 15.8783 15.2002 14.3716 15.2002H6.5284C5.0217 15.2002 3.8 14.0251 3.8 12.5754C3.8 11.1257 5.0217 9.95055 6.5284 9.95055H6.5873C6.78205 8.1332 8.10825 6.65025 10.45 6.65025ZM10.45 7.60025C8.8825 7.60025 7.51735 8.80675 7.51735 10.474C7.51735 10.7381 7.27605 10.9452 6.9996 10.9452H6.4771C5.5233 10.9452 4.75 11.6852 4.75 12.5982C4.75 13.5092 5.5233 14.2502 6.4771 14.2502H14.4229C15.3767 14.2502 16.15 13.5102 16.15 12.5972C16.15 11.6852 15.3767 10.9452 14.4229 10.9452H13.9004C13.6249 10.9452 13.3826 10.7381 13.3826 10.474C13.3826 8.78585 12.0175 7.60025 10.45 7.60025ZM7.9724 3.80025C9.3556 3.80025 10.5621 4.58685 11.1577 5.743C10.753 5.69281 10.3441 5.6858 9.93795 5.7221C9.70329 5.42006 9.40283 5.17554 9.05942 5.00713C8.71602 4.83872 8.33872 4.75086 7.95625 4.75025C7.35889 4.75308 6.7817 4.96665 6.32637 5.35333C5.87105 5.74001 5.5668 6.27499 5.46725 6.864L5.4321 7.0635C5.39401 7.28428 5.27912 7.4845 5.10772 7.62878C4.93632 7.77306 4.71944 7.85212 4.4954 7.852H4.2503C3.477 7.852 2.85 8.4866 2.85 9.2694C2.85 9.8109 3.14925 10.2811 3.5891 10.5196C3.3858 10.778 3.2186 11.0668 3.0951 11.3765C2.64253 11.1008 2.28969 10.6879 2.08788 10.1979C1.88608 9.70783 1.84581 9.16621 1.97295 8.65174C2.10008 8.13726 2.38799 7.67674 2.79482 7.33712C3.20165 6.99751 3.70619 6.79649 4.2351 6.7633L4.44505 6.75855C4.59154 5.92951 5.0254 5.17857 5.67045 4.63759C6.3155 4.0966 7.13052 3.80013 7.9724 3.80025Z" fill="#145E94"/>
</svg>
